<svg viewBox="0 0 60 60" xmlns="http://www.w3.org/2000/svg" xmlns:xlink="http://www.w3.org/1999/xlink" width="60.000000" height="60.000000" fill="none" customFrame="#000000">
	<path id="placeholder" d="M30 60C46.5685 60 60 46.5685 60 30C60 13.4315 46.5685 -6.66134e-15 30 -6.66134e-15C13.4315 -6.66134e-15 2.04281e-14 13.4315 2.04281e-14 30C2.04281e-14 46.5685 13.4315 60 30 60Z" fill="rgb(38.25,38.25,38.25)" fill-rule="evenodd" transform="matrix(1,-1.22465e-16,-1.22465e-16,-1,0,60)" />
	<path id="placeholder" d="M60 30C60 46.5685 46.5685 60 30 60C13.4315 60 2.04281e-14 46.5685 2.04281e-14 30C2.04281e-14 13.4315 13.4315 -6.66134e-15 30 -6.66134e-15C46.5685 -6.66134e-15 60 13.4315 60 30ZM57.6924 25.8324C57.8975 27.2063 58 28.5955 58 30C58 31.4046 57.8974 32.7939 57.6923 34.1679C57.6185 34.6623 57.5315 35.1547 57.4311 35.6451C57.2449 36.5549 57.0146 37.4509 56.7399 38.3331C56.4696 39.2015 56.1565 40.0565 55.8004 40.8983C55.5042 41.5986 55.1805 42.2846 54.8294 42.9562C54.3449 43.8827 53.8082 44.7818 53.2192 45.6537C52.7592 46.3347 52.2712 46.9931 51.7554 47.6288C51.1426 48.3841 50.4905 49.1075 49.799 49.799C49.1075 50.4905 48.3841 51.1426 47.6288 51.7554C46.9931 52.2712 46.3347 52.7592 45.6537 53.2192C44.7818 53.8083 43.8826 54.345 42.956 54.8295C42.2845 55.1806 41.5985 55.5042 40.8983 55.8004C40.0565 56.1565 39.2014 56.4696 38.333 56.74C37.4508 57.0146 36.5548 57.245 35.6451 57.4311C35.1546 57.5315 34.6621 57.6186 34.1676 57.6924C32.7937 57.8975 31.4045 58 30 58C28.5955 58 27.2063 57.8975 25.8324 57.6924C25.3379 57.6186 24.8454 57.5315 24.3549 57.4311C23.4452 57.2449 22.5492 57.0146 21.667 56.74C20.7986 56.4696 19.9435 56.1565 19.1018 55.8004C18.4013 55.5042 17.7152 55.1804 17.0434 54.8292C16.1171 54.3448 15.218 53.8081 14.3463 53.2192C13.6649 52.7589 13.0062 52.2707 12.3701 51.7545C11.6152 51.142 10.8922 50.4901 10.201 49.799C9.50971 49.1077 8.85773 48.3845 8.24507 47.6294C7.72908 46.9934 7.24099 46.3349 6.78078 45.6537C6.19178 44.7818 5.65506 43.8827 5.17062 42.9562C4.81946 42.2846 4.49577 41.5986 4.19956 40.8983C3.84375 40.057 3.53075 39.2025 3.26054 38.3346C2.98571 37.4519 2.75516 36.5554 2.56889 35.6451C2.46846 35.1543 2.38133 34.6616 2.3075 34.1668C2.1025 32.7932 2 31.4042 2 30C2 28.5958 2.10249 27.2069 2.30747 25.8334C2.38131 25.3386 2.46845 24.8457 2.56889 24.3549C2.75517 23.4446 2.98573 22.5481 3.26057 21.6653C3.53077 20.7975 3.84376 19.9429 4.19956 19.1018C4.49576 18.4015 4.81943 17.7155 5.17057 17.0439C5.65502 16.1174 6.19175 15.2182 6.78078 14.3463C7.2413 13.6647 7.72974 13.0057 8.24611 12.3693C8.85847 11.6147 9.51011 10.8919 10.201 10.201C10.8919 9.51009 11.6147 8.85844 12.3694 8.24607C13.0057 7.72971 13.6647 7.24128 14.3463 6.78078C15.218 6.19189 16.117 5.65526 17.0433 5.1709C17.7151 4.81963 18.4012 4.49585 19.1018 4.19956C19.943 3.84374 20.7976 3.53072 21.6655 3.2605C22.5482 2.98569 23.4447 2.75515 24.3549 2.56889C24.8458 2.46844 25.3387 2.38129 25.8335 2.30745C27.2071 2.10248 28.5959 2 30 2C31.4042 2 32.7932 2.1025 34.1668 2.3075C34.6616 2.38133 35.1543 2.46846 35.6451 2.56889C36.5555 2.75519 37.4522 2.98578 38.335 3.26066C39.2027 3.53084 40.0572 3.8438 40.8983 4.19956C41.5982 4.4956 42.2837 4.81908 42.955 5.17C43.8819 5.6546 44.7815 6.19152 45.6537 6.78078C46.335 7.24108 46.9937 7.72928 47.6298 8.24538C48.3847 8.85795 49.1078 9.50983 49.799 10.201C50.49 10.892 51.1418 11.615 51.7542 12.3697C52.2705 13.006 52.7588 13.6648 53.2192 14.3463C53.8081 15.218 54.3448 16.1171 54.8292 17.0434C55.1804 17.7152 55.5042 18.4013 55.8004 19.1018C56.1565 19.9435 56.4696 20.7985 56.7399 21.6669C57.0146 22.5492 57.2449 23.4451 57.4311 24.3549C57.5315 24.8454 57.6186 25.3379 57.6924 25.8324Z" fill="rgb(48.45,48.45,48.45)" fill-rule="evenodd" transform="matrix(1,-1.22465e-16,-1.22465e-16,-1,0,60)" />
</svg>
