<svg viewBox="0 0 207.131 24" xmlns="http://www.w3.org/2000/svg" xmlns:xlink="http://www.w3.org/1999/xlink" width="207.130676" height="24.000000" fill="none" customFrame="#000000">
	<defs>
		<clipPath id="clipPath_0">
			<rect width="25.000000" height="24.000000" x="0.000000" y="0.000000" fill="rgb(255,255,255)" />
		</clipPath>
	</defs>
	<g id="Логотип">
		<path id="HEALTHY SWITCHER" d="M120.487 17.682L118.359 17.682Q118.358 17.7175 118.358 17.7527Q118.358 18.6318 118.695 19.278C118.928 19.726 119.241 20.0947 119.633 20.384C120.034 20.6733 120.491 20.8833 121.005 21.014Q121.196 21.0651 121.389 21.1038L121.389 21.1039L121.39 21.104Q121.99 21.224 122.615 21.224C123.296 21.224 123.893 21.1447 124.407 20.986C124.929 20.8273 125.363 20.608 125.709 20.328C126.063 20.0387 126.329 19.698 126.507 19.306C126.684 18.914 126.773 18.4893 126.773 18.032C126.773 17.472 126.651 17.0147 126.409 16.66C126.175 16.296 125.895 16.0067 125.569 15.792C125.242 15.5773 124.911 15.4233 124.575 15.33C124.248 15.2273 123.991 15.1573 123.805 15.12Q122.867 14.882 122.279 14.728C121.896 14.6253 121.593 14.5227 121.369 14.42C121.154 14.3173 121.009 14.2053 120.935 14.084C120.86 13.9627 120.823 13.804 120.823 13.608C120.823 13.3933 120.869 13.216 120.963 13.076C121.056 12.936 121.173 12.8193 121.313 12.726C121.462 12.6327 121.625 12.5673 121.803 12.53C121.98 12.4927 122.157 12.474 122.335 12.474C122.605 12.474 122.853 12.4973 123.077 12.544C123.31 12.5907 123.515 12.67 123.693 12.782C123.87 12.894 124.01 13.048 124.113 13.244C124.225 13.44 124.29 13.6873 124.309 13.986L126.437 13.986Q126.437 13.118 126.101 12.516C125.886 12.1053 125.592 11.7693 125.219 11.508C124.845 11.2467 124.416 11.06 123.931 10.948C123.455 10.8267 122.955 10.766 122.433 10.766C121.985 10.766 121.537 10.8267 121.089 10.948C120.641 11.0693 120.239 11.256 119.885 11.508C119.53 11.76 119.241 12.0773 119.017 12.46C118.802 12.8333 118.695 13.2767 118.695 13.79C118.695 14.2473 118.779 14.6393 118.947 14.966C119.124 15.2833 119.353 15.5493 119.633 15.764C119.913 15.9787 120.23 16.156 120.585 16.296C120.939 16.4267 121.303 16.5387 121.677 16.632C122.041 16.7347 122.4 16.828 122.755 16.912C123.109 16.996 123.427 17.094 123.707 17.206C123.987 17.318 124.211 17.458 124.379 17.626C124.556 17.794 124.645 18.0133 124.645 18.284C124.645 18.536 124.579 18.746 124.449 18.914C124.318 19.0727 124.155 19.1987 123.959 19.292Q123.665 19.432 123.329 19.488Q122.993 19.53 122.699 19.53C122.409 19.53 122.129 19.4973 121.859 19.432C121.588 19.3573 121.35 19.25 121.145 19.11C120.949 18.9607 120.79 18.7693 120.669 18.536C120.547 18.3027 120.487 18.018 120.487 17.682ZM169.053 14.364L171.181 14.364C171.115 13.7853 170.957 13.272 170.705 12.824C170.453 12.376 170.131 12.0027 169.739 11.704C169.356 11.396 168.917 11.1627 168.423 11.004C167.937 10.8453 167.419 10.766 166.869 10.766C166.103 10.766 165.413 10.9013 164.797 11.172C164.19 11.4427 163.677 11.816 163.257 12.292C162.837 12.768 162.515 13.328 162.291 13.972Q161.955 14.924 161.955 16.044Q161.955 17.136 162.291 18.088C162.515 18.7133 162.837 19.2593 163.257 19.726C163.677 20.1927 164.19 20.5613 164.797 20.832C165.413 21.0933 166.103 21.224 166.869 21.224Q167.793 21.224 168.563 20.944Q169.17 20.7232 169.655 20.3457Q169.785 20.2445 169.907 20.132C170.289 19.7773 170.597 19.348 170.831 18.844C171.064 18.34 171.209 17.7753 171.265 17.15L169.137 17.15C169.053 17.822 168.819 18.3633 168.437 18.774C168.063 19.1847 167.541 19.39 166.869 19.39C166.374 19.39 165.954 19.2967 165.609 19.11C165.263 18.914 164.983 18.6573 164.769 18.34C164.554 18.0227 164.395 17.668 164.293 17.276C164.199 16.8747 164.153 16.464 164.153 16.044C164.153 15.6053 164.199 15.1807 164.293 14.77C164.395 14.3593 164.554 13.9953 164.769 13.678C164.983 13.3513 165.263 13.0947 165.609 12.908Q166.127 12.614 166.869 12.614C167.139 12.614 167.396 12.6607 167.639 12.754Q167.979 12.8674 168.251 13.0716L168.253 13.0732Q168.282 13.0951 168.311 13.118C168.507 13.2767 168.67 13.4633 168.801 13.678Q168.848 13.7517 168.886 13.8294L168.887 13.8297Q169.01 14.0766 169.053 14.364ZM33.966 11.004L33.966 21L36.164 21L36.164 16.688L40.21 16.688L40.21 21L42.408 21L42.408 11.004L40.21 11.004L40.21 14.84L36.164 14.84L36.164 11.004L33.966 11.004ZM46.443 11.004L46.443 21L54.031 21L54.031 19.152L48.641 19.152L48.641 16.702L53.485 16.702L53.485 14.994L48.641 14.994L48.641 12.852L53.919 12.852L53.919 11.004L46.443 11.004ZM60.3511 11.004L56.5711 21L58.7831 21L59.5671 18.774L63.3051 18.774L64.0611 21L66.3431 21L62.6051 11.004L60.3511 11.004ZM69.3051 11.004L69.3051 21L76.3751 21L76.3751 19.152L71.5031 19.152L71.5031 11.004L69.3051 11.004ZM80.6307 12.852L80.6307 21L82.8287 21L82.8287 12.852L85.8247 12.852L85.8247 11.004L77.6347 11.004L77.6347 12.852L80.6307 12.852ZM89.0773 11.004L89.0773 21L91.2753 21L91.2753 16.688L95.3213 16.688L95.3213 21L97.5193 21L97.5193 11.004L95.3213 11.004L95.3213 14.84L91.2753 14.84L91.2753 11.004L89.0773 11.004ZM104.144 17.108L104.144 21L106.342 21L106.342 17.164L110.052 11.004L107.602 11.004L105.278 14.952L102.94 11.004L100.476 11.004L104.144 17.108ZM139.7 21L142.388 11.004L140.232 11.004L138.594 17.892L138.566 17.892L136.858 11.004L134.8 11.004L133.064 17.808L133.036 17.808L131.454 11.004L129.256 11.004L131.902 21L134.128 21L135.794 14.196L135.822 14.196L137.516 21L139.7 21ZM145.501 11.004L145.501 21L147.699 21L147.699 11.004L145.501 11.004ZM153.942 12.852L153.942 21L156.14 21L156.14 12.852L159.136 12.852L159.136 11.004L150.946 11.004L150.946 12.852L153.942 12.852ZM174.866 11.004L174.866 21L177.064 21L177.064 16.688L181.11 16.688L181.11 21L183.308 21L183.308 11.004L181.11 11.004L181.11 14.84L177.064 14.84L177.064 11.004L174.866 11.004ZM187.343 11.004L187.343 21L194.931 21L194.931 19.152L189.541 19.152L189.541 16.702L194.385 16.702L194.385 14.994L189.541 14.994L189.541 12.852L194.819 12.852L194.819 11.004L187.343 11.004ZM198.521 11.004L198.521 21L200.719 21L200.719 17.094L202.917 17.094C203.467 17.094 203.864 17.2153 204.107 17.458C204.349 17.7007 204.508 18.0833 204.583 18.606C204.639 19.0073 204.681 19.4273 204.709 19.866C204.737 20.3047 204.811 20.6827 204.933 21L207.131 21C207.028 20.86 206.949 20.692 206.893 20.496C206.846 20.2907 206.809 20.076 206.781 19.852C206.762 19.628 206.748 19.4087 206.739 19.194C206.729 18.9793 206.72 18.7927 206.711 18.634C206.692 18.382 206.655 18.13 206.599 17.878C206.552 17.626 206.473 17.3973 206.361 17.192C206.249 16.9773 206.104 16.7953 205.927 16.646Q205.661 16.408 205.255 16.296L205.255 16.268C205.815 16.044 206.216 15.7173 206.459 15.288C206.711 14.8587 206.837 14.35 206.837 13.762C206.837 13.3793 206.767 13.0247 206.627 12.698C206.496 12.362 206.3 12.068 206.039 11.816L206.039 11.8159Q205.661 11.438 205.115 11.228C204.76 11.0787 204.359 11.004 203.911 11.004L198.521 11.004ZM200.719 15.526L200.719 12.712L203.127 12.712C203.631 12.712 204.009 12.824 204.261 13.048C204.513 13.2627 204.639 13.6127 204.639 14.098C204.639 14.602 204.513 14.966 204.261 15.19C204.009 15.414 203.631 15.526 203.127 15.526L200.719 15.526ZM60.1411 17.136L61.4431 13.468L61.4711 13.468L62.7311 17.136L60.1411 17.136Z" fill="rgb(52,199,89)" fill-rule="evenodd" />
		<g id="Logo" clip-path="url(#clipPath_0)" customFrame="url(#clipPath_0)">
			<rect id="Logo" width="25.000000" height="24.000000" x="0.000000" y="0.000000" fill="rgb(255,255,255)" fill-opacity="0" />
			<path id="Vector" d="M17.0984 8.16492L7.90162 8.16492C3.53781 8.16492 0 11.7087 0 16.0817C0 20.4547 3.53781 24 7.90162 24L17.0984 24C21.4622 24 25 20.4547 25 16.0817C25 11.7087 21.4622 8.16492 17.0984 8.16492ZM16.9261 23.0921C13.0637 23.0921 9.93201 19.9537 9.93201 16.0832C9.93201 12.2127 13.0637 9.07436 16.9261 9.07436C20.7885 9.07436 23.9202 12.2127 23.9202 16.0832C23.9202 19.9537 20.7885 23.0921 16.9261 23.0921Z" fill="rgb(52,199,89)" fill-rule="nonzero" />
			<path id="Vector" d="M16.0047 4.68437C16.0047 5.68167 16.2632 6.61732 16.7169 7.42811C14.5112 7.04738 12.833 5.1206 12.833 2.80075C12.833 2.50942 12.8592 2.22426 12.9115 1.9468C13.3422 1.81578 13.8005 1.74487 14.2743 1.74487C15.0895 1.74487 15.8571 1.95451 16.5247 2.32137C16.1909 3.03967 16.0047 3.83967 16.0047 4.68437Z" fill="rgb(52,199,89)" fill-rule="nonzero" />
			<path id="Vector" d="M22.2067 2.80077C22.2067 4.92023 20.8069 6.71137 18.8827 7.29557C18.552 7.39576 18.2074 7.46204 17.849 7.48516L17.8475 7.48516C17.2676 6.70366 16.9246 5.7341 16.9246 4.68439C16.9246 4.03391 17.0568 3.41426 17.2953 2.8501C17.9674 1.26243 19.4856 0.123314 21.2838 0C21.8636 0.781503 22.2067 1.75106 22.2067 2.80077Z" fill="rgb(52,199,89)" fill-rule="nonzero" />
		</g>
	</g>
</svg>
